<svg width="265" height="265" viewBox="0 0 265 265" fill="none" xmlns="http://www.w3.org/2000/svg">
<path d="M218.953 38.7454L254.076 169.826C259.799 191.184 247.07 213.23 225.712 218.953L94.6318 254.076C73.2611 259.802 51.2276 247.07 45.5047 225.712L10.3818 94.6318C4.65888 73.2736 17.3747 51.2309 38.7454 45.5047L169.826 10.3818C191.184 4.65888 213.23 17.3872 218.953 38.7454ZM235.286 174.861L200.163 43.7802C197.216 32.7816 185.859 26.2249 174.861 29.172L43.7802 64.2948C32.7817 67.2419 26.2249 78.5985 29.172 89.597L64.2948 220.677C67.2419 231.676 78.5985 238.233 89.597 235.286L220.677 200.163C231.676 197.216 238.233 185.859 235.286 174.861Z" fill="white"/>
<path d="M184.434 106.841C189.462 108.368 193.172 112.945 193.597 118.188C194.094 124.352 190.002 130.175 184.026 131.776C178.728 133.196 172.934 131.015 169.897 126.445C167.025 122.14 166.994 116.362 169.891 112.041C173.027 107.361 179.031 105.215 184.434 106.841Z" fill="white"/>
<path d="M197.797 156.711C202.909 158.254 206.638 162.948 206.979 168.281C207.377 174.377 203.276 180.067 197.389 181.645C192.153 183.048 186.461 180.948 183.376 176.498C180.361 172.11 180.317 166.134 183.37 161.744C186.545 157.161 192.469 155.117 197.797 156.711Z" fill="white"/>
<path d="M171.069 56.9598C176.222 58.5058 179.958 63.2781 180.253 68.6367C180.587 74.6962 176.539 80.3324 170.664 81.9066C165.44 83.3063 159.749 81.2063 156.67 76.7816C153.659 72.4595 153.607 66.5526 156.528 62.1716C159.661 57.4788 165.668 55.3456 171.069 56.9598Z" fill="white"/>
<path d="M74.1738 82.9227C79.2774 84.4821 83.0272 89.1566 83.356 94.4927C83.7259 100.583 79.6819 106.285 73.7693 107.869C68.4579 109.293 62.6861 107.093 59.6398 102.539C56.6681 98.1126 56.7687 92.1244 59.8761 87.7875C63.0728 83.3328 68.9123 81.325 74.1738 82.9227Z" fill="white"/>
<path d="M87.5396 132.804C92.6398 134.351 96.3896 139.026 96.7185 144.362C97.0917 150.465 93.0443 156.154 87.1317 157.739C81.8203 159.162 76.0644 156.972 73.0023 152.408C70.0464 147.991 70.1152 141.984 73.2386 137.657C76.4512 133.211 82.2689 131.223 87.5396 132.804Z" fill="white"/>
<path d="M100.902 182.673C106.002 184.22 109.755 188.907 110.084 194.243C110.457 200.346 106.407 206.024 100.494 207.608C95.1827 209.031 89.4176 206.857 86.3647 202.277C83.4088 197.86 83.4776 191.854 86.601 187.526C89.8136 183.08 95.6316 181.093 100.902 182.673Z" fill="white"/>
</svg>
